<svg xmlns="http://www.w3.org/2000/svg" version="1.1"
	xmlns:xlink="http://www.w3.org/1999/xlink"
	xmlns:svgjs="http://svgjs.dev/svgjs" viewBox="0 0 1422 800">
	<g>
		<circle r="45" cx="0" cy="0" fill="hsl(236, 86%, 65%)"></circle>
		<circle r="45" cx="0" cy="90" fill="hsl(224, 86%, 65%)"></circle>
		<circle r="45" cx="0" cy="180" fill="hsl(211, 86%, 65%)"></circle>
		<circle r="45" cx="0" cy="270" fill="hsl(203, 86%, 65%)"></circle>
		<circle r="45" cx="0" cy="360" fill="hsl(197, 86%, 65%)"></circle>
		<circle r="45" cx="0" cy="450" fill="hsl(197, 86%, 65%)"></circle>
		<circle r="45" cx="0" cy="540" fill="hsl(201, 86%, 65%)"></circle>
		<circle r="45" cx="0" cy="630" fill="hsl(210, 86%, 65%)"></circle>
		<circle r="45" cx="0" cy="720" fill="hsl(220, 86%, 65%)"></circle>
		<circle r="45" cx="0" cy="810" fill="hsl(234, 86%, 65%)"></circle>
		<circle r="45" cx="90" cy="0" fill="hsl(247, 86%, 65%)"></circle>
		<circle r="45" cx="90" cy="90" fill="hsl(236, 86%, 65%)"></circle>
		<circle r="45" cx="90" cy="180" fill="hsl(222, 86%, 65%)"></circle>
		<circle r="45" cx="90" cy="270" fill="hsl(214, 86%, 65%)"></circle>
		<circle r="45" cx="90" cy="360" fill="hsl(206, 86%, 65%)"></circle>
		<circle r="45" cx="90" cy="450" fill="hsl(204, 86%, 65%)"></circle>
		<circle r="45" cx="90" cy="540" fill="hsl(205, 86%, 65%)"></circle>
		<circle r="45" cx="90" cy="630" fill="hsl(212, 86%, 65%)"></circle>
		<circle r="45" cx="90" cy="720" fill="hsl(220, 86%, 65%)"></circle>
		<circle r="45" cx="90" cy="810" fill="hsl(231, 86%, 65%)"></circle>
		<circle r="45" cx="180" cy="0" fill="hsl(260, 86%, 65%)"></circle>
		<circle r="45" cx="180" cy="90" fill="hsl(249, 86%, 65%)"></circle>
		<circle r="45" cx="180" cy="180" fill="hsl(236, 86%, 65%)"></circle>
		<circle r="45" cx="180" cy="270" fill="hsl(226, 86%, 65%)"></circle>
		<circle r="45" cx="180" cy="360" fill="hsl(218, 86%, 65%)"></circle>
		<circle r="45" cx="180" cy="450" fill="hsl(213, 86%, 65%)"></circle>
		<circle r="45" cx="180" cy="540" fill="hsl(212, 86%, 65%)"></circle>
		<circle r="45" cx="180" cy="630" fill="hsl(215, 86%, 65%)"></circle>
		<circle r="45" cx="180" cy="720" fill="hsl(220, 86%, 65%)"></circle>
		<circle r="45" cx="180" cy="810" fill="hsl(227, 86%, 65%)"></circle>
		<circle r="45" cx="270" cy="0" fill="hsl(268, 86%, 65%)"></circle>
		<circle r="45" cx="270" cy="90" fill="hsl(257, 86%, 65%)"></circle>
		<circle r="45" cx="270" cy="180" fill="hsl(245, 86%, 65%)"></circle>
		<circle r="45" cx="270" cy="270" fill="hsl(236, 86%, 65%)"></circle>
		<circle r="45" cx="270" cy="360" fill="hsl(226, 86%, 65%)"></circle>
		<circle r="45" cx="270" cy="450" fill="hsl(220, 86%, 65%)"></circle>
		<circle r="45" cx="270" cy="540" fill="hsl(218, 86%, 65%)"></circle>
		<circle r="45" cx="270" cy="630" fill="hsl(218, 86%, 65%)"></circle>
		<circle r="45" cx="270" cy="720" fill="hsl(220, 86%, 65%)"></circle>
		<circle r="45" cx="270" cy="810" fill="hsl(223, 86%, 65%)"></circle>
		<circle r="45" cx="360" cy="0" fill="hsl(274, 86%, 65%)"></circle>
		<circle r="45" cx="360" cy="90" fill="hsl(265, 86%, 65%)"></circle>
		<circle r="45" cx="360" cy="180" fill="hsl(253, 86%, 65%)"></circle>
		<circle r="45" cx="360" cy="270" fill="hsl(245, 86%, 65%)"></circle>
		<circle r="45" cx="360" cy="360" fill="hsl(236, 86%, 65%)"></circle>
		<circle r="45" cx="360" cy="450" fill="hsl(229, 86%, 65%)"></circle>
		<circle r="45" cx="360" cy="540" fill="hsl(225, 86%, 65%)"></circle>
		<circle r="45" cx="360" cy="630" fill="hsl(222, 86%, 65%)"></circle>
		<circle r="45" cx="360" cy="720" fill="hsl(221, 86%, 65%)"></circle>
		<circle r="45" cx="360" cy="810" fill="hsl(220, 86%, 65%)"></circle>
		<circle r="45" cx="450" cy="0" fill="hsl(274, 86%, 65%)"></circle>
		<circle r="45" cx="450" cy="90" fill="hsl(267, 86%, 65%)"></circle>
		<circle r="45" cx="450" cy="180" fill="hsl(258, 86%, 65%)"></circle>
		<circle r="45" cx="450" cy="270" fill="hsl(251, 86%, 65%)"></circle>
		<circle r="45" cx="450" cy="360" fill="hsl(242, 86%, 65%)"></circle>
		<circle r="45" cx="450" cy="450" fill="hsl(236, 86%, 65%)"></circle>
		<circle r="45" cx="450" cy="540" fill="hsl(231, 86%, 65%)"></circle>
		<circle r="45" cx="450" cy="630" fill="hsl(226, 86%, 65%)"></circle>
		<circle r="45" cx="450" cy="720" fill="hsl(222, 86%, 65%)"></circle>
		<circle r="45" cx="450" cy="810" fill="hsl(218, 86%, 65%)"></circle>
		<circle r="45" cx="540" cy="0" fill="hsl(270, 86%, 65%)"></circle>
		<circle r="45" cx="540" cy="90" fill="hsl(266, 86%, 65%)"></circle>
		<circle r="45" cx="540" cy="180" fill="hsl(259, 86%, 65%)"></circle>
		<circle r="45" cx="540" cy="270" fill="hsl(253, 86%, 65%)"></circle>
		<circle r="45" cx="540" cy="360" fill="hsl(246, 86%, 65%)"></circle>
		<circle r="45" cx="540" cy="450" fill="hsl(240, 86%, 65%)"></circle>
		<circle r="45" cx="540" cy="540" fill="hsl(236, 86%, 65%)"></circle>
		<circle r="45" cx="540" cy="630" fill="hsl(230, 86%, 65%)"></circle>
		<circle r="45" cx="540" cy="720" fill="hsl(225, 86%, 65%)"></circle>
		<circle r="45" cx="540" cy="810" fill="hsl(219, 86%, 65%)"></circle>
		<circle r="45" cx="630" cy="0" fill="hsl(261, 86%, 65%)"></circle>
		<circle r="45" cx="630" cy="90" fill="hsl(259, 86%, 65%)"></circle>
		<circle r="45" cx="630" cy="180" fill="hsl(256, 86%, 65%)"></circle>
		<circle r="45" cx="630" cy="270" fill="hsl(253, 86%, 65%)"></circle>
		<circle r="45" cx="630" cy="360" fill="hsl(249, 86%, 65%)"></circle>
		<circle r="45" cx="630" cy="450" fill="hsl(245, 86%, 65%)"></circle>
		<circle r="45" cx="630" cy="540" fill="hsl(241, 86%, 65%)"></circle>
		<circle r="45" cx="630" cy="630" fill="hsl(236, 86%, 65%)"></circle>
		<circle r="45" cx="630" cy="720" fill="hsl(230, 86%, 65%)"></circle>
		<circle r="45" cx="630" cy="810" fill="hsl(222, 86%, 65%)"></circle>
		<circle r="45" cx="720" cy="0" fill="hsl(251, 86%, 65%)"></circle>
		<circle r="45" cx="720" cy="90" fill="hsl(251, 86%, 65%)"></circle>
		<circle r="45" cx="720" cy="180" fill="hsl(251, 86%, 65%)"></circle>
		<circle r="45" cx="720" cy="270" fill="hsl(251, 86%, 65%)"></circle>
		<circle r="45" cx="720" cy="360" fill="hsl(250, 86%, 65%)"></circle>
		<circle r="45" cx="720" cy="450" fill="hsl(249, 86%, 65%)"></circle>
		<circle r="45" cx="720" cy="540" fill="hsl(246, 86%, 65%)"></circle>
		<circle r="45" cx="720" cy="630" fill="hsl(241, 86%, 65%)"></circle>
		<circle r="45" cx="720" cy="720" fill="hsl(236, 86%, 65%)"></circle>
		<circle r="45" cx="720" cy="810" fill="hsl(227, 86%, 65%)"></circle>
		<circle r="45" cx="810" cy="0" fill="hsl(237, 86%, 65%)"></circle>
		<circle r="45" cx="810" cy="90" fill="hsl(240, 86%, 65%)"></circle>
		<circle r="45" cx="810" cy="180" fill="hsl(244, 86%, 65%)"></circle>
		<circle r="45" cx="810" cy="270" fill="hsl(248, 86%, 65%)"></circle>
		<circle r="45" cx="810" cy="360" fill="hsl(251, 86%, 65%)"></circle>
		<circle r="45" cx="810" cy="450" fill="hsl(253, 86%, 65%)"></circle>
		<circle r="45" cx="810" cy="540" fill="hsl(252, 86%, 65%)"></circle>
		<circle r="45" cx="810" cy="630" fill="hsl(249, 86%, 65%)"></circle>
		<circle r="45" cx="810" cy="720" fill="hsl(244, 86%, 65%)"></circle>
		<circle r="45" cx="810" cy="810" fill="hsl(236, 86%, 65%)"></circle>
		<circle r="45" cx="900" cy="0" fill="hsl(225, 86%, 65%)"></circle>
		<circle r="45" cx="900" cy="90" fill="hsl(230, 86%, 65%)"></circle>
		<circle r="45" cx="900" cy="180" fill="hsl(238, 86%, 65%)"></circle>
		<circle r="45" cx="900" cy="270" fill="hsl(244, 86%, 65%)"></circle>
		<circle r="45" cx="900" cy="360" fill="hsl(251, 86%, 65%)"></circle>
		<circle r="45" cx="900" cy="450" fill="hsl(257, 86%, 65%)"></circle>
		<circle r="45" cx="900" cy="540" fill="hsl(259, 86%, 65%)"></circle>
		<circle r="45" cx="900" cy="630" fill="hsl(258, 86%, 65%)"></circle>
		<circle r="45" cx="900" cy="720" fill="hsl(255, 86%, 65%)"></circle>
		<circle r="45" cx="900" cy="810" fill="hsl(247, 86%, 65%)"></circle>
		<circle r="45" cx="990" cy="0" fill="hsl(217, 86%, 65%)"></circle>
		<circle r="45" cx="990" cy="90" fill="hsl(224, 86%, 65%)"></circle>
		<circle r="45" cx="990" cy="180" fill="hsl(234, 86%, 65%)"></circle>
		<circle r="45" cx="990" cy="270" fill="hsl(242, 86%, 65%)"></circle>
		<circle r="45" cx="990" cy="360" fill="hsl(252, 86%, 65%)"></circle>
		<circle r="45" cx="990" cy="450" fill="hsl(261, 86%, 65%)"></circle>
		<circle r="45" cx="990" cy="540" fill="hsl(265, 86%, 65%)"></circle>
		<circle r="45" cx="990" cy="630" fill="hsl(266, 86%, 65%)"></circle>
		<circle r="45" cx="990" cy="720" fill="hsl(264, 86%, 65%)"></circle>
		<circle r="45" cx="990" cy="810" fill="hsl(257, 86%, 65%)"></circle>
		<circle r="45" cx="1080" cy="0" fill="hsl(213, 86%, 65%)"></circle>
		<circle r="45" cx="1080" cy="90" fill="hsl(220, 86%, 65%)"></circle>
		<circle r="45" cx="1080" cy="180" fill="hsl(232, 86%, 65%)"></circle>
		<circle r="45" cx="1080" cy="270" fill="hsl(242, 86%, 65%)"></circle>
		<circle r="45" cx="1080" cy="360" fill="hsl(254, 86%, 65%)"></circle>
		<circle r="45" cx="1080" cy="450" fill="hsl(265, 86%, 65%)"></circle>
		<circle r="45" cx="1080" cy="540" fill="hsl(271, 86%, 65%)"></circle>
		<circle r="45" cx="1080" cy="630" fill="hsl(275, 86%, 65%)"></circle>
		<circle r="45" cx="1080" cy="720" fill="hsl(275, 86%, 65%)"></circle>
		<circle r="45" cx="1080" cy="810" fill="hsl(269, 86%, 65%)"></circle>
		<circle r="45" cx="1170" cy="0" fill="hsl(214, 86%, 65%)"></circle>
		<circle r="45" cx="1170" cy="90" fill="hsl(221, 86%, 65%)"></circle>
		<circle r="45" cx="1170" cy="180" fill="hsl(232, 86%, 65%)"></circle>
		<circle r="45" cx="1170" cy="270" fill="hsl(243, 86%, 65%)"></circle>
		<circle r="45" cx="1170" cy="360" fill="hsl(257, 86%, 65%)"></circle>
		<circle r="45" cx="1170" cy="450" fill="hsl(269, 86%, 65%)"></circle>
		<circle r="45" cx="1170" cy="540" fill="hsl(277, 86%, 65%)"></circle>
		<circle r="45" cx="1170" cy="630" fill="hsl(283, 86%, 65%)"></circle>
		<circle r="45" cx="1170" cy="720" fill="hsl(284, 86%, 65%)"></circle>
		<circle r="45" cx="1170" cy="810" fill="hsl(280, 86%, 65%)"></circle>
		<circle r="45" cx="1260" cy="0" fill="hsl(218, 86%, 65%)"></circle>
		<circle r="45" cx="1260" cy="90" fill="hsl(224, 86%, 65%)"></circle>
		<circle r="45" cx="1260" cy="180" fill="hsl(235, 86%, 65%)"></circle>
		<circle r="45" cx="1260" cy="270" fill="hsl(245, 86%, 65%)"></circle>
		<circle r="45" cx="1260" cy="360" fill="hsl(258, 86%, 65%)"></circle>
		<circle r="45" cx="1260" cy="450" fill="hsl(271, 86%, 65%)"></circle>
		<circle r="45" cx="1260" cy="540" fill="hsl(279, 86%, 65%)"></circle>
		<circle r="45" cx="1260" cy="630" fill="hsl(286, 86%, 65%)"></circle>
		<circle r="45" cx="1260" cy="720" fill="hsl(289, 86%, 65%)"></circle>
		<circle r="45" cx="1260" cy="810" fill="hsl(287, 86%, 65%)"></circle>
		<circle r="45" cx="1350" cy="0" fill="hsl(225, 86%, 65%)"></circle>
		<circle r="45" cx="1350" cy="90" fill="hsl(230, 86%, 65%)"></circle>
		<circle r="45" cx="1350" cy="180" fill="hsl(238, 86%, 65%)"></circle>
		<circle r="45" cx="1350" cy="270" fill="hsl(247, 86%, 65%)"></circle>
		<circle r="45" cx="1350" cy="360" fill="hsl(259, 86%, 65%)"></circle>
		<circle r="45" cx="1350" cy="450" fill="hsl(271, 86%, 65%)"></circle>
		<circle r="45" cx="1350" cy="540" fill="hsl(280, 86%, 65%)"></circle>
		<circle r="45" cx="1350" cy="630" fill="hsl(288, 86%, 65%)"></circle>
		<circle r="45" cx="1350" cy="720" fill="hsl(292, 86%, 65%)"></circle>
		<circle r="45" cx="1350" cy="810" fill="hsl(292, 86%, 65%)"></circle>
		<circle r="45" cx="1440" cy="0" fill="hsl(231, 86%, 65%)"></circle>
		<circle r="45" cx="1440" cy="90" fill="hsl(234, 86%, 65%)"></circle>
		<circle r="45" cx="1440" cy="180" fill="hsl(240, 86%, 65%)"></circle>
		<circle r="45" cx="1440" cy="270" fill="hsl(248, 86%, 65%)"></circle>
		<circle r="45" cx="1440" cy="360" fill="hsl(259, 86%, 65%)"></circle>
		<circle r="45" cx="1440" cy="450" fill="hsl(271, 86%, 65%)"></circle>
		<circle r="45" cx="1440" cy="540" fill="hsl(279, 86%, 65%)"></circle>
		<circle r="45" cx="1440" cy="630" fill="hsl(288, 86%, 65%)"></circle>
		<circle r="45" cx="1440" cy="720" fill="hsl(292, 86%, 65%)"></circle>
		<circle r="45" cx="1440" cy="810" fill="hsl(293, 86%, 65%)"></circle>
		<circle r="45" cx="1530" cy="0" fill="hsl(231, 86%, 65%)"></circle>
		<circle r="45" cx="1530" cy="90" fill="hsl(234, 86%, 65%)"></circle>
		<circle r="45" cx="1530" cy="180" fill="hsl(240, 86%, 65%)"></circle>
		<circle r="45" cx="1530" cy="270" fill="hsl(248, 86%, 65%)"></circle>
		<circle r="45" cx="1530" cy="360" fill="hsl(259, 86%, 65%)"></circle>
		<circle r="45" cx="1530" cy="450" fill="hsl(271, 86%, 65%)"></circle>
		<circle r="45" cx="1530" cy="540" fill="hsl(279, 86%, 65%)"></circle>
		<circle r="45" cx="1530" cy="630" fill="hsl(288, 86%, 65%)"></circle>
		<circle r="45" cx="1530" cy="720" fill="hsl(292, 86%, 65%)"></circle>
		<circle r="45" cx="1530" cy="810" fill="hsl(293, 86%, 65%)"></circle>
		<circle r="45" cx="1620" cy="0" fill="hsl(231, 86%, 65%)"></circle>
		<circle r="45" cx="1620" cy="90" fill="hsl(234, 86%, 65%)"></circle>
		<circle r="45" cx="1620" cy="180" fill="hsl(240, 86%, 65%)"></circle>
		<circle r="45" cx="1620" cy="270" fill="hsl(248, 86%, 65%)"></circle>
		<circle r="45" cx="1620" cy="360" fill="hsl(259, 86%, 65%)"></circle>
		<circle r="45" cx="1620" cy="450" fill="hsl(271, 86%, 65%)"></circle>
		<circle r="45" cx="1620" cy="540" fill="hsl(279, 86%, 65%)"></circle>
		<circle r="45" cx="1620" cy="630" fill="hsl(288, 86%, 65%)"></circle>
		<circle r="45" cx="1620" cy="720" fill="hsl(292, 86%, 65%)"></circle>
		<circle r="45" cx="1620" cy="810" fill="hsl(293, 86%, 65%)"></circle>
		<circle r="45" cx="1710" cy="0" fill="hsl(231, 86%, 65%)"></circle>
		<circle r="45" cx="1710" cy="90" fill="hsl(234, 86%, 65%)"></circle>
		<circle r="45" cx="1710" cy="180" fill="hsl(240, 86%, 65%)"></circle>
		<circle r="45" cx="1710" cy="270" fill="hsl(248, 86%, 65%)"></circle>
		<circle r="45" cx="1710" cy="360" fill="hsl(259, 86%, 65%)"></circle>
		<circle r="45" cx="1710" cy="450" fill="hsl(271, 86%, 65%)"></circle>
		<circle r="45" cx="1710" cy="540" fill="hsl(279, 86%, 65%)"></circle>
		<circle r="45" cx="1710" cy="630" fill="hsl(288, 86%, 65%)"></circle>
		<circle r="45" cx="1710" cy="720" fill="hsl(292, 86%, 65%)"></circle>
		<circle r="45" cx="1710" cy="810" fill="hsl(293, 86%, 65%)"></circle>
		<circle r="45" cx="1800" cy="0" fill="hsl(231, 86%, 65%)"></circle>
		<circle r="45" cx="1800" cy="90" fill="hsl(234, 86%, 65%)"></circle>
		<circle r="45" cx="1800" cy="180" fill="hsl(240, 86%, 65%)"></circle>
		<circle r="45" cx="1800" cy="270" fill="hsl(248, 86%, 65%)"></circle>
		<circle r="45" cx="1800" cy="360" fill="hsl(259, 86%, 65%)"></circle>
		<circle r="45" cx="1800" cy="450" fill="hsl(271, 86%, 65%)"></circle>
		<circle r="45" cx="1800" cy="540" fill="hsl(279, 86%, 65%)"></circle>
		<circle r="45" cx="1800" cy="630" fill="hsl(288, 86%, 65%)"></circle>
		<circle r="45" cx="1800" cy="720" fill="hsl(292, 86%, 65%)"></circle>
		<circle r="45" cx="1800" cy="810" fill="hsl(293, 86%, 65%)"></circle>
	</g>
	<g transform="matrix(1,0,0,1,-45,0)">
		<circle r="45" cx="0" cy="45" fill="hsl(230, 86%, 65%)"></circle>
		<circle r="45" cx="0" cy="135" fill="hsl(219, 86%, 65%)"></circle>
		<circle r="45" cx="0" cy="225" fill="hsl(207, 86%, 65%)"></circle>
		<circle r="45" cx="0" cy="315" fill="hsl(199, 86%, 65%)"></circle>
		<circle r="45" cx="0" cy="405" fill="hsl(196, 86%, 65%)"></circle>
		<circle r="45" cx="0" cy="495" fill="hsl(198, 86%, 65%)"></circle>
		<circle r="45" cx="0" cy="585" fill="hsl(206, 86%, 65%)"></circle>
		<circle r="45" cx="0" cy="675" fill="hsl(215, 86%, 65%)"></circle>
		<circle r="45" cx="0" cy="765" fill="hsl(229, 86%, 65%)"></circle>
		<circle r="45" cx="0" cy="855" fill="hsl(239, 86%, 65%)"></circle>
		<circle r="45" cx="90" cy="45" fill="hsl(241, 86%, 65%)"></circle>
		<circle r="45" cx="90" cy="135" fill="hsl(230, 86%, 65%)"></circle>
		<circle r="45" cx="90" cy="225" fill="hsl(218, 86%, 65%)"></circle>
		<circle r="45" cx="90" cy="315" fill="hsl(209, 86%, 65%)"></circle>
		<circle r="45" cx="90" cy="405" fill="hsl(204, 86%, 65%)"></circle>
		<circle r="45" cx="90" cy="495" fill="hsl(204, 86%, 65%)"></circle>
		<circle r="45" cx="90" cy="585" fill="hsl(209, 86%, 65%)"></circle>
		<circle r="45" cx="90" cy="675" fill="hsl(216, 86%, 65%)"></circle>
		<circle r="45" cx="90" cy="765" fill="hsl(226, 86%, 65%)"></circle>
		<circle r="45" cx="90" cy="855" fill="hsl(235, 86%, 65%)"></circle>
		<circle r="45" cx="180" cy="45" fill="hsl(254, 86%, 65%)"></circle>
		<circle r="45" cx="180" cy="135" fill="hsl(243, 86%, 65%)"></circle>
		<circle r="45" cx="180" cy="225" fill="hsl(231, 86%, 65%)"></circle>
		<circle r="45" cx="180" cy="315" fill="hsl(221, 86%, 65%)"></circle>
		<circle r="45" cx="180" cy="405" fill="hsl(215, 86%, 65%)"></circle>
		<circle r="45" cx="180" cy="495" fill="hsl(212, 86%, 65%)"></circle>
		<circle r="45" cx="180" cy="585" fill="hsl(214, 86%, 65%)"></circle>
		<circle r="45" cx="180" cy="675" fill="hsl(217, 86%, 65%)"></circle>
		<circle r="45" cx="180" cy="765" fill="hsl(224, 86%, 65%)"></circle>
		<circle r="45" cx="180" cy="855" fill="hsl(230, 86%, 65%)"></circle>
		<circle r="45" cx="270" cy="45" fill="hsl(263, 86%, 65%)"></circle>
		<circle r="45" cx="270" cy="135" fill="hsl(252, 86%, 65%)"></circle>
		<circle r="45" cx="270" cy="225" fill="hsl(240, 86%, 65%)"></circle>
		<circle r="45" cx="270" cy="315" fill="hsl(230, 86%, 65%)"></circle>
		<circle r="45" cx="270" cy="405" fill="hsl(223, 86%, 65%)"></circle>
		<circle r="45" cx="270" cy="495" fill="hsl(219, 86%, 65%)"></circle>
		<circle r="45" cx="270" cy="585" fill="hsl(218, 86%, 65%)"></circle>
		<circle r="45" cx="270" cy="675" fill="hsl(219, 86%, 65%)"></circle>
		<circle r="45" cx="270" cy="765" fill="hsl(222, 86%, 65%)"></circle>
		<circle r="45" cx="270" cy="855" fill="hsl(225, 86%, 65%)"></circle>
		<circle r="45" cx="360" cy="45" fill="hsl(269, 86%, 65%)"></circle>
		<circle r="45" cx="360" cy="135" fill="hsl(260, 86%, 65%)"></circle>
		<circle r="45" cx="360" cy="225" fill="hsl(249, 86%, 65%)"></circle>
		<circle r="45" cx="360" cy="315" fill="hsl(239, 86%, 65%)"></circle>
		<circle r="45" cx="360" cy="405" fill="hsl(232, 86%, 65%)"></circle>
		<circle r="45" cx="360" cy="495" fill="hsl(226, 86%, 65%)"></circle>
		<circle r="45" cx="360" cy="585" fill="hsl(223, 86%, 65%)"></circle>
		<circle r="45" cx="360" cy="675" fill="hsl(221, 86%, 65%)"></circle>
		<circle r="45" cx="360" cy="765" fill="hsl(220, 86%, 65%)"></circle>
		<circle r="45" cx="360" cy="855" fill="hsl(220, 86%, 65%)"></circle>
		<circle r="45" cx="450" cy="45" fill="hsl(271, 86%, 65%)"></circle>
		<circle r="45" cx="450" cy="135" fill="hsl(264, 86%, 65%)"></circle>
		<circle r="45" cx="450" cy="225" fill="hsl(254, 86%, 65%)"></circle>
		<circle r="45" cx="450" cy="315" fill="hsl(246, 86%, 65%)"></circle>
		<circle r="45" cx="450" cy="405" fill="hsl(240, 86%, 65%)"></circle>
		<circle r="45" cx="450" cy="495" fill="hsl(233, 86%, 65%)"></circle>
		<circle r="45" cx="450" cy="585" fill="hsl(228, 86%, 65%)"></circle>
		<circle r="45" cx="450" cy="675" fill="hsl(224, 86%, 65%)"></circle>
		<circle r="45" cx="450" cy="765" fill="hsl(220, 86%, 65%)"></circle>
		<circle r="45" cx="450" cy="855" fill="hsl(217, 86%, 65%)"></circle>
		<circle r="45" cx="540" cy="45" fill="hsl(268, 86%, 65%)"></circle>
		<circle r="45" cx="540" cy="135" fill="hsl(263, 86%, 65%)"></circle>
		<circle r="45" cx="540" cy="225" fill="hsl(256, 86%, 65%)"></circle>
		<circle r="45" cx="540" cy="315" fill="hsl(249, 86%, 65%)"></circle>
		<circle r="45" cx="540" cy="405" fill="hsl(244, 86%, 65%)"></circle>
		<circle r="45" cx="540" cy="495" fill="hsl(238, 86%, 65%)"></circle>
		<circle r="45" cx="540" cy="585" fill="hsl(232, 86%, 65%)"></circle>
		<circle r="45" cx="540" cy="675" fill="hsl(227, 86%, 65%)"></circle>
		<circle r="45" cx="540" cy="765" fill="hsl(221, 86%, 65%)"></circle>
		<circle r="45" cx="540" cy="855" fill="hsl(216, 86%, 65%)"></circle>
		<circle r="45" cx="630" cy="45" fill="hsl(260, 86%, 65%)"></circle>
		<circle r="45" cx="630" cy="135" fill="hsl(258, 86%, 65%)"></circle>
		<circle r="45" cx="630" cy="225" fill="hsl(254, 86%, 65%)"></circle>
		<circle r="45" cx="630" cy="315" fill="hsl(251, 86%, 65%)"></circle>
		<circle r="45" cx="630" cy="405" fill="hsl(248, 86%, 65%)"></circle>
		<circle r="45" cx="630" cy="495" fill="hsl(243, 86%, 65%)"></circle>
		<circle r="45" cx="630" cy="585" fill="hsl(238, 86%, 65%)"></circle>
		<circle r="45" cx="630" cy="675" fill="hsl(233, 86%, 65%)"></circle>
		<circle r="45" cx="630" cy="765" fill="hsl(225, 86%, 65%)"></circle>
		<circle r="45" cx="630" cy="855" fill="hsl(218, 86%, 65%)"></circle>
		<circle r="45" cx="720" cy="45" fill="hsl(251, 86%, 65%)"></circle>
		<circle r="45" cx="720" cy="135" fill="hsl(251, 86%, 65%)"></circle>
		<circle r="45" cx="720" cy="225" fill="hsl(251, 86%, 65%)"></circle>
		<circle r="45" cx="720" cy="315" fill="hsl(251, 86%, 65%)"></circle>
		<circle r="45" cx="720" cy="405" fill="hsl(250, 86%, 65%)"></circle>
		<circle r="45" cx="720" cy="495" fill="hsl(247, 86%, 65%)"></circle>
		<circle r="45" cx="720" cy="585" fill="hsl(243, 86%, 65%)"></circle>
		<circle r="45" cx="720" cy="675" fill="hsl(238, 86%, 65%)"></circle>
		<circle r="45" cx="720" cy="765" fill="hsl(231, 86%, 65%)"></circle>
		<circle r="45" cx="720" cy="855" fill="hsl(223, 86%, 65%)"></circle>
		<circle r="45" cx="810" cy="45" fill="hsl(238, 86%, 65%)"></circle>
		<circle r="45" cx="810" cy="135" fill="hsl(242, 86%, 65%)"></circle>
		<circle r="45" cx="810" cy="225" fill="hsl(246, 86%, 65%)"></circle>
		<circle r="45" cx="810" cy="315" fill="hsl(250, 86%, 65%)"></circle>
		<circle r="45" cx="810" cy="405" fill="hsl(252, 86%, 65%)"></circle>
		<circle r="45" cx="810" cy="495" fill="hsl(253, 86%, 65%)"></circle>
		<circle r="45" cx="810" cy="585" fill="hsl(251, 86%, 65%)"></circle>
		<circle r="45" cx="810" cy="675" fill="hsl(247, 86%, 65%)"></circle>
		<circle r="45" cx="810" cy="765" fill="hsl(239, 86%, 65%)"></circle>
		<circle r="45" cx="810" cy="855" fill="hsl(231, 86%, 65%)"></circle>
		<circle r="45" cx="900" cy="45" fill="hsl(227, 86%, 65%)"></circle>
		<circle r="45" cx="900" cy="135" fill="hsl(233, 86%, 65%)"></circle>
		<circle r="45" cx="900" cy="225" fill="hsl(241, 86%, 65%)"></circle>
		<circle r="45" cx="900" cy="315" fill="hsl(249, 86%, 65%)"></circle>
		<circle r="45" cx="900" cy="405" fill="hsl(254, 86%, 65%)"></circle>
		<circle r="45" cx="900" cy="495" fill="hsl(258, 86%, 65%)"></circle>
		<circle r="45" cx="900" cy="585" fill="hsl(259, 86%, 65%)"></circle>
		<circle r="45" cx="900" cy="675" fill="hsl(257, 86%, 65%)"></circle>
		<circle r="45" cx="900" cy="765" fill="hsl(250, 86%, 65%)"></circle>
		<circle r="45" cx="900" cy="855" fill="hsl(243, 86%, 65%)"></circle>
		<circle r="45" cx="990" cy="45" fill="hsl(221, 86%, 65%)"></circle>
		<circle r="45" cx="990" cy="135" fill="hsl(228, 86%, 65%)"></circle>
		<circle r="45" cx="990" cy="225" fill="hsl(238, 86%, 65%)"></circle>
		<circle r="45" cx="990" cy="315" fill="hsl(248, 86%, 65%)"></circle>
		<circle r="45" cx="990" cy="405" fill="hsl(256, 86%, 65%)"></circle>
		<circle r="45" cx="990" cy="495" fill="hsl(263, 86%, 65%)"></circle>
		<circle r="45" cx="990" cy="585" fill="hsl(266, 86%, 65%)"></circle>
		<circle r="45" cx="990" cy="675" fill="hsl(265, 86%, 65%)"></circle>
		<circle r="45" cx="990" cy="765" fill="hsl(260, 86%, 65%)"></circle>
		<circle r="45" cx="990" cy="855" fill="hsl(253, 86%, 65%)"></circle>
		<circle r="45" cx="1080" cy="45" fill="hsl(217, 86%, 65%)"></circle>
		<circle r="45" cx="1080" cy="135" fill="hsl(225, 86%, 65%)"></circle>
		<circle r="45" cx="1080" cy="225" fill="hsl(237, 86%, 65%)"></circle>
		<circle r="45" cx="1080" cy="315" fill="hsl(249, 86%, 65%)"></circle>
		<circle r="45" cx="1080" cy="405" fill="hsl(259, 86%, 65%)"></circle>
		<circle r="45" cx="1080" cy="495" fill="hsl(269, 86%, 65%)"></circle>
		<circle r="45" cx="1080" cy="585" fill="hsl(274, 86%, 65%)"></circle>
		<circle r="45" cx="1080" cy="675" fill="hsl(275, 86%, 65%)"></circle>
		<circle r="45" cx="1080" cy="765" fill="hsl(272, 86%, 65%)"></circle>
		<circle r="45" cx="1080" cy="855" fill="hsl(266, 86%, 65%)"></circle>
		<circle r="45" cx="1170" cy="45" fill="hsl(217, 86%, 65%)"></circle>
		<circle r="45" cx="1170" cy="135" fill="hsl(225, 86%, 65%)"></circle>
		<circle r="45" cx="1170" cy="225" fill="hsl(238, 86%, 65%)"></circle>
		<circle r="45" cx="1170" cy="315" fill="hsl(251, 86%, 65%)"></circle>
		<circle r="45" cx="1170" cy="405" fill="hsl(262, 86%, 65%)"></circle>
		<circle r="45" cx="1170" cy="495" fill="hsl(273, 86%, 65%)"></circle>
		<circle r="45" cx="1170" cy="585" fill="hsl(281, 86%, 65%)"></circle>
		<circle r="45" cx="1170" cy="675" fill="hsl(284, 86%, 65%)"></circle>
		<circle r="45" cx="1170" cy="765" fill="hsl(282, 86%, 65%)"></circle>
		<circle r="45" cx="1170" cy="855" fill="hsl(277, 86%, 65%)"></circle>
		<circle r="45" cx="1260" cy="45" fill="hsl(221, 86%, 65%)"></circle>
		<circle r="45" cx="1260" cy="135" fill="hsl(228, 86%, 65%)"></circle>
		<circle r="45" cx="1260" cy="225" fill="hsl(239, 86%, 65%)"></circle>
		<circle r="45" cx="1260" cy="315" fill="hsl(253, 86%, 65%)"></circle>
		<circle r="45" cx="1260" cy="405" fill="hsl(263, 86%, 65%)"></circle>
		<circle r="45" cx="1260" cy="495" fill="hsl(275, 86%, 65%)"></circle>
		<circle r="45" cx="1260" cy="585" fill="hsl(284, 86%, 65%)"></circle>
		<circle r="45" cx="1260" cy="675" fill="hsl(288, 86%, 65%)"></circle>
		<circle r="45" cx="1260" cy="765" fill="hsl(288, 86%, 65%)"></circle>
		<circle r="45" cx="1260" cy="855" fill="hsl(285, 86%, 65%)"></circle>
		<circle r="45" cx="1350" cy="45" fill="hsl(227, 86%, 65%)"></circle>
		<circle r="45" cx="1350" cy="135" fill="hsl(233, 86%, 65%)"></circle>
		<circle r="45" cx="1350" cy="225" fill="hsl(242, 86%, 65%)"></circle>
		<circle r="45" cx="1350" cy="315" fill="hsl(254, 86%, 65%)"></circle>
		<circle r="45" cx="1350" cy="405" fill="hsl(264, 86%, 65%)"></circle>
		<circle r="45" cx="1350" cy="495" fill="hsl(276, 86%, 65%)"></circle>
		<circle r="45" cx="1350" cy="585" fill="hsl(285, 86%, 65%)"></circle>
		<circle r="45" cx="1350" cy="675" fill="hsl(290, 86%, 65%)"></circle>
		<circle r="45" cx="1350" cy="765" fill="hsl(292, 86%, 65%)"></circle>
		<circle r="45" cx="1350" cy="855" fill="hsl(290, 86%, 65%)"></circle>
		<circle r="45" cx="1440" cy="45" fill="hsl(232, 86%, 65%)"></circle>
		<circle r="45" cx="1440" cy="135" fill="hsl(236, 86%, 65%)"></circle>
		<circle r="45" cx="1440" cy="225" fill="hsl(244, 86%, 65%)"></circle>
		<circle r="45" cx="1440" cy="315" fill="hsl(254, 86%, 65%)"></circle>
		<circle r="45" cx="1440" cy="405" fill="hsl(264, 86%, 65%)"></circle>
		<circle r="45" cx="1440" cy="495" fill="hsl(275, 86%, 65%)"></circle>
		<circle r="45" cx="1440" cy="585" fill="hsl(285, 86%, 65%)"></circle>
		<circle r="45" cx="1440" cy="675" fill="hsl(290, 86%, 65%)"></circle>
		<circle r="45" cx="1440" cy="765" fill="hsl(293, 86%, 65%)"></circle>
		<circle r="45" cx="1440" cy="855" fill="hsl(292, 86%, 65%)"></circle>
		<circle r="45" cx="1530" cy="45" fill="hsl(232, 86%, 65%)"></circle>
		<circle r="45" cx="1530" cy="135" fill="hsl(236, 86%, 65%)"></circle>
		<circle r="45" cx="1530" cy="225" fill="hsl(244, 86%, 65%)"></circle>
		<circle r="45" cx="1530" cy="315" fill="hsl(254, 86%, 65%)"></circle>
		<circle r="45" cx="1530" cy="405" fill="hsl(264, 86%, 65%)"></circle>
		<circle r="45" cx="1530" cy="495" fill="hsl(275, 86%, 65%)"></circle>
		<circle r="45" cx="1530" cy="585" fill="hsl(285, 86%, 65%)"></circle>
		<circle r="45" cx="1530" cy="675" fill="hsl(290, 86%, 65%)"></circle>
		<circle r="45" cx="1530" cy="765" fill="hsl(293, 86%, 65%)"></circle>
		<circle r="45" cx="1530" cy="855" fill="hsl(292, 86%, 65%)"></circle>
		<circle r="45" cx="1620" cy="45" fill="hsl(232, 86%, 65%)"></circle>
		<circle r="45" cx="1620" cy="135" fill="hsl(236, 86%, 65%)"></circle>
		<circle r="45" cx="1620" cy="225" fill="hsl(244, 86%, 65%)"></circle>
		<circle r="45" cx="1620" cy="315" fill="hsl(254, 86%, 65%)"></circle>
		<circle r="45" cx="1620" cy="405" fill="hsl(264, 86%, 65%)"></circle>
		<circle r="45" cx="1620" cy="495" fill="hsl(275, 86%, 65%)"></circle>
		<circle r="45" cx="1620" cy="585" fill="hsl(285, 86%, 65%)"></circle>
		<circle r="45" cx="1620" cy="675" fill="hsl(290, 86%, 65%)"></circle>
		<circle r="45" cx="1620" cy="765" fill="hsl(293, 86%, 65%)"></circle>
		<circle r="45" cx="1620" cy="855" fill="hsl(292, 86%, 65%)"></circle>
		<circle r="45" cx="1710" cy="45" fill="hsl(232, 86%, 65%)"></circle>
		<circle r="45" cx="1710" cy="135" fill="hsl(236, 86%, 65%)"></circle>
		<circle r="45" cx="1710" cy="225" fill="hsl(244, 86%, 65%)"></circle>
		<circle r="45" cx="1710" cy="315" fill="hsl(254, 86%, 65%)"></circle>
		<circle r="45" cx="1710" cy="405" fill="hsl(264, 86%, 65%)"></circle>
		<circle r="45" cx="1710" cy="495" fill="hsl(275, 86%, 65%)"></circle>
		<circle r="45" cx="1710" cy="585" fill="hsl(285, 86%, 65%)"></circle>
		<circle r="45" cx="1710" cy="675" fill="hsl(290, 86%, 65%)"></circle>
		<circle r="45" cx="1710" cy="765" fill="hsl(293, 86%, 65%)"></circle>
		<circle r="45" cx="1710" cy="855" fill="hsl(292, 86%, 65%)"></circle>
		<circle r="45" cx="1800" cy="45" fill="hsl(232, 86%, 65%)"></circle>
		<circle r="45" cx="1800" cy="135" fill="hsl(236, 86%, 65%)"></circle>
		<circle r="45" cx="1800" cy="225" fill="hsl(244, 86%, 65%)"></circle>
		<circle r="45" cx="1800" cy="315" fill="hsl(254, 86%, 65%)"></circle>
		<circle r="45" cx="1800" cy="405" fill="hsl(264, 86%, 65%)"></circle>
		<circle r="45" cx="1800" cy="495" fill="hsl(275, 86%, 65%)"></circle>
		<circle r="45" cx="1800" cy="585" fill="hsl(285, 86%, 65%)"></circle>
		<circle r="45" cx="1800" cy="675" fill="hsl(290, 86%, 65%)"></circle>
		<circle r="45" cx="1800" cy="765" fill="hsl(293, 86%, 65%)"></circle>
		<circle r="45" cx="1800" cy="855" fill="hsl(292, 86%, 65%)"></circle>
	</g>
</svg>