<svg xmlns="http://www.w3.org/2000/svg" version="1.1"
	xmlns:xlink="http://www.w3.org/1999/xlink"
	xmlns:svgjs="http://svgjs.dev/svgjs" viewBox="0 0 640 800">
	<circle r="12" cx="519" cy="429" fill="hsl(245, 50%, 50%)" opacity="0.65">
	</circle>
	<circle r="14.5" cx="226" cy="775" fill="hsl(291, 50%, 50%)" opacity="0.34">
	</circle>
	<circle r="12.5" cx="518" cy="678" fill="hsl(245, 50%, 50%)" opacity="0.72">
	</circle>
	<circle r="12" cx="527" cy="22" fill="hsl(281, 50%, 50%)" opacity="0.12">
	</circle>
	<circle r="10" cx="388" cy="139" fill="hsl(238, 50%, 50%)" opacity="0.47">
	</circle>
	<circle r="14" cx="616" cy="106" stroke-width="2" stroke="hsl(314, 50%, 50%)"
		fill="none" opacity="0.93"></circle>
	<circle r="16.5" cx="87" cy="323" fill="hsl(290, 50%, 50%)" opacity="0.82">
	</circle>
	<circle r="16.5" cx="133" cy="284" stroke-width="2"
		stroke="hsl(306, 50%, 50%)" fill="none" opacity="0.71"></circle>
	<circle r="9.5" cx="325" cy="305" fill="hsl(222, 50%, 50%)" opacity="0.25">
	</circle>
	<circle r="11.5" cx="270" cy="59" fill="hsl(283, 50%, 50%)" opacity="0.27">
	</circle>
	<circle r="10" cx="617" cy="677" fill="hsl(239, 50%, 50%)" opacity="0.99">
	</circle>
	<circle r="14.5" cx="70" cy="210" fill="hsl(285, 50%, 50%)" opacity="0.13">
	</circle>
	<circle r="11" cx="304" cy="568" fill="hsl(233, 50%, 50%)" opacity="0.46">
	</circle>
	<circle r="10.5" cx="383" cy="492" stroke-width="2"
		stroke="hsl(215, 50%, 50%)" fill="none" opacity="0.18"></circle>
	<circle r="11" cx="20" cy="125" stroke-width="2" stroke="hsl(256, 50%, 50%)"
		fill="none" opacity="0.28"></circle>
	<circle r="15" cx="81" cy="430" fill="hsl(290, 50%, 50%)" opacity="0.93">
	</circle>
	<circle r="13.5" cx="69" cy="549" stroke-width="2" stroke="hsl(285, 50%, 50%)"
		fill="none" opacity="0.78"></circle>
	<circle r="15" cx="234" cy="470" stroke-width="2" stroke="hsl(284, 50%, 50%)"
		fill="none" opacity="0.55"></circle>
	<circle r="11.5" cx="564" cy="462" fill="hsl(241, 50%, 50%)" opacity="0.74">
	</circle>
	<circle r="12" cx="444" cy="482" fill="hsl(233, 50%, 50%)" opacity="0.43">
	</circle>
	<circle r="10.5" cx="570" cy="573" stroke-width="2"
		stroke="hsl(241, 50%, 50%)" fill="none" opacity="0.87"></circle>
	<circle r="16.5" cx="165" cy="678" stroke-width="2"
		stroke="hsl(311, 50%, 50%)" fill="none" opacity="0.96"></circle>
	<circle r="9.5" cx="341" cy="159" fill="hsl(230, 50%, 50%)" opacity="0.30">
	</circle>
	<circle r="15" cx="122" cy="775" fill="hsl(303, 50%, 50%)" opacity="0.18">
	</circle>
	<circle r="15" cx="80" cy="718" fill="hsl(287, 50%, 50%)" opacity="0.41">
	</circle>
	<circle r="14" cx="520" cy="126" stroke-width="2" stroke="hsl(290, 50%, 50%)"
		fill="none" opacity="0.76"></circle>
	<circle r="12.5" cx="222" cy="73" fill="hsl(272, 50%, 50%)" opacity="0.96">
	</circle>
	<circle r="18" cx="167" cy="404" fill="hsl(311, 50%, 50%)" opacity="0.45">
	</circle>
	<circle r="9.5" cx="346" cy="350" stroke-width="2" stroke="hsl(216, 50%, 50%)"
		fill="none" opacity="0.25"></circle>
	<circle r="9.5" cx="618" cy="569" stroke-width="2" stroke="hsl(239, 50%, 50%)"
		fill="none" opacity="0.67"></circle>
	<circle r="13" cx="549" cy="336" stroke-width="2" stroke="hsl(243, 50%, 50%)"
		fill="none" opacity="0.67"></circle>
	<circle r="11.5" cx="611" cy="622" fill="hsl(239, 50%, 50%)" opacity="0.50">
	</circle>
	<circle r="9.5" cx="381" cy="291" fill="hsl(215, 50%, 50%)" opacity="0.31">
	</circle>
	<circle r="9.5" cx="395" cy="775" fill="hsl(217, 50%, 50%)" opacity="0.80">
	</circle>
	<circle r="14" cx="254" cy="623" fill="hsl(269, 50%, 50%)" opacity="0.28">
	</circle>
	<circle r="13" cx="72" cy="656" stroke-width="2" stroke="hsl(287, 50%, 50%)"
		fill="none" opacity="0.37"></circle>
	<circle r="10" cx="337" cy="681" fill="hsl(218, 50%, 50%)" opacity="0.92">
	</circle>
	<circle r="14" cx="233" cy="205" stroke-width="2" stroke="hsl(284, 50%, 50%)"
		fill="none" opacity="0.44"></circle>
	<circle r="7.5" cx="108" cy="24" stroke-width="2" stroke="hsl(204, 50%, 50%)"
		fill="none" opacity="0.41"></circle>
	<circle r="9.5" cx="325" cy="203" fill="hsl(222, 50%, 50%)" opacity="0.83">
	</circle>
	<circle r="10" cx="406" cy="338" fill="hsl(219, 50%, 50%)" opacity="0.20">
	</circle>
	<circle r="15.5" cx="223" cy="674" stroke-width="2"
		stroke="hsl(291, 50%, 50%)" fill="none" opacity="0.35"></circle>
	<circle r="12" cx="503" cy="480" stroke-width="2" stroke="hsl(245, 50%, 50%)"
		fill="none" opacity="0.53"></circle>
	<circle r="12" cx="434" cy="118" stroke-width="2" stroke="hsl(259, 50%, 50%)"
		fill="none" opacity="0.73"></circle>
	<circle r="9" cx="358" cy="18" stroke-width="2" stroke="hsl(264, 50%, 50%)"
		fill="none" opacity="0.50"></circle>
	<circle r="17.5" cx="178" cy="234" fill="hsl(311, 50%, 50%)" opacity="0.31">
	</circle>
	<circle r="12" cx="464" cy="428" stroke-width="2" stroke="hsl(239, 50%, 50%)"
		fill="none" opacity="0.53"></circle>
	<circle r="13" cx="22" cy="558" stroke-width="2" stroke="hsl(281, 50%, 50%)"
		fill="none" opacity="0.68"></circle>
	<circle r="13" cx="23" cy="407" fill="hsl(281, 50%, 50%)" opacity="0.54">
	</circle>
	<circle r="11.5" cx="442" cy="288" fill="hsl(233, 50%, 50%)" opacity="0.52">
	</circle>
	<circle r="15" cx="118" cy="557" stroke-width="2" stroke="hsl(300, 50%, 50%)"
		fill="none" opacity="0.50"></circle>
	<circle r="12.5" cx="480" cy="92" fill="hsl(278, 50%, 50%)" opacity="0.85">
	</circle>
	<circle r="10.5" cx="402" cy="589" stroke-width="2"
		stroke="hsl(219, 50%, 50%)" fill="none" opacity="0.94"></circle>
	<circle r="12.5" cx="509" cy="294" fill="hsl(245, 50%, 50%)" opacity="0.32">
	</circle>
	<circle r="16" cx="208" cy="362" fill="hsl(302, 50%, 50%)" opacity="0.14">
	</circle>
	<circle r="9.5" cx="422" cy="172" fill="hsl(234, 50%, 50%)" opacity="0.81">
	</circle>
	<circle r="11" cx="175" cy="77" stroke-width="2" stroke="hsl(247, 50%, 50%)"
		fill="none" opacity="0.76"></circle>
	<circle r="15" cx="231" cy="258" stroke-width="2" stroke="hsl(284, 50%, 50%)"
		fill="none" opacity="0.83"></circle>
	<circle r="11" cx="441" cy="65" stroke-width="2" stroke="hsl(259, 50%, 50%)"
		fill="none" opacity="0.76"></circle>
</svg>