<svg t="1722239037599" class="icon" viewBox="0 0 1024 1024" version="1.1"
  xmlns="http://www.w3.org/2000/svg" p-id="1857" width="64" height="64">
  <path
    d="M882.98666667 359.89333333c-78.93333333-30.82666667-123.09333333-111.68-144.10666667-163.30666666-11.2-27.52-37.97333333-45.44-67.73333333-45.44H351.46666667c-29.65333333 0-56.53333333 17.92-67.73333334 45.44-21.01333333 51.62666667-65.28 132.58666667-144.21333333 163.41333333-21.44 8.32-35.09333333 29.22666667-35.2 52.16-0.53333333 298.34666667 274.66666667 464.42666667 372.8 514.24 21.44 10.88 46.82666667 10.77333333 68.16-0.32 97.92-50.77333333 373.76-219.84 372.90666667-513.92 0-22.93333333-13.86666667-43.84-35.2-52.26666667z"
    fill="#FF556E" p-id="1858"></path>
  <path
    d="M351.46666667 151.25333333c-27.73333333 0-53.01333333 15.68-65.28 40.10666667 25.81333333-16.53333333 53.76-29.97333333 83.2-40.10666667h-17.92zM139.52 360c-21.44 8.32-35.09333333 29.22666667-35.2 52.16 0 20.90666667 1.28 41.17333333 3.84 60.8 4.90666667-39.89333333 15.78666667-77.97333333 31.78666667-113.17333333-0.10666667 0.10666667-0.32 0.10666667-0.42666667 0.21333333z m599.36-163.30666667c-11.2-27.52-37.97333333-45.44-67.73333333-45.44H622.93333333c47.78666667 16.32 91.41333333 41.70666667 128.85333334 74.13333334-5.01333333-10.24-9.28-19.94666667-12.90666667-28.69333334zM444.05333333 908.69333333c12.37333333 7.04 23.57333333 12.90666667 33.06666667 17.70666667 21.44 10.88 46.82666667 10.77333333 68.16-0.32 12.69333333-6.50666667 28.26666667-15.04 45.86666667-25.6-30.4 7.57333333-62.29333333 11.62666667-95.04 11.62666667-17.6 0-34.98666667-1.17333333-52.05333334-3.41333334z m438.93333334-548.8c-15.14666667-5.97333333-29.12-13.76-41.81333334-22.82666666 29.33333333 54.82666667 45.97333333 117.44 45.97333334 184 0 25.92-2.56 51.2-7.36 75.62666666 23.89333333-54.82666667 38.61333333-116.37333333 38.4-184.64 0-22.82666667-13.86666667-43.73333333-35.2-52.16z"
    fill="#FF556E" p-id="1859"></path>
  <path
    d="M841.17333333 337.17333333c-42.02666667-29.97333333-70.82666667-74.13333333-89.38666666-111.78666666-37.44-32.32-81.06666667-57.70666667-128.85333334-74.13333334H369.38666667c-29.54666667 10.13333333-57.38666667 23.68-83.2 40.10666667-0.85333333 1.70666667-1.70666667 3.52-2.45333334 5.33333333-6.08 14.93333333-14.08 32.32-24.32 50.24 58.98666667-50.66666667 135.68-81.38666667 219.62666667-81.38666666 186.24 0 337.17333333 150.93333333 337.17333333 337.17333333S665.28 839.89333333 479.04 839.89333333 141.86666667 688.96 141.86666667 502.72c0-62.29333333 16.85333333-120.53333333 46.29333333-170.56-14.4 11.2-30.4 20.69333333-48.21333333 27.73333333-16 35.30666667-26.88 73.28-31.78666667 113.17333334 29.86666667 233.06666667 229.12 375.25333333 335.89333333 435.62666666 17.06666667 2.24 34.45333333 3.41333333 52.05333334 3.41333334 32.74666667 0 64.64-4.05333333 95.04-11.62666667 87.04-52.05333333 222.72-152.64 288.64-303.68 4.8-24.42666667 7.36-49.70666667 7.36-75.62666667 0-66.56-16.64-129.17333333-45.97333334-184z"
    fill="#FF5F71" p-id="1860"></path>
  <path
    d="M479.04 839.89333333c186.24 0 337.17333333-150.93333333 337.17333333-337.17333333S665.28 165.54666667 479.04 165.54666667c-83.84 0-160.64 30.61333333-219.62666667 81.38666666-17.06666667 29.97333333-40.42666667 61.33333333-71.25333333 85.22666667-29.44 50.02666667-46.29333333 108.26666667-46.29333333 170.56 0 186.24 150.93333333 337.17333333 337.17333333 337.17333333zM461.86666667 200.85333333c156.48 0 283.41333333 126.93333333 283.41333333 283.41333334S618.45333333 767.68 461.86666667 767.68 178.56 640.74666667 178.56 484.26666667 305.38666667 200.85333333 461.86666667 200.85333333z"
    fill="#FF6974" p-id="1861"></path>
  <path
    d="M461.86666667 767.68c156.48 0 283.41333333-126.93333333 283.41333333-283.41333333S618.45333333 200.85333333 461.86666667 200.85333333 178.56 327.78666667 178.56 484.26666667 305.38666667 767.68 461.86666667 767.68z m-17.06666667-531.52c126.82666667 0 229.65333333 102.82666667 229.65333333 229.65333333S571.62666667 695.46666667 444.8 695.46666667s-229.65333333-102.82666667-229.65333333-229.65333334S317.97333333 236.16 444.8 236.16z"
    fill="#FF7377" p-id="1862"></path>
  <path
    d="M444.8 695.46666667c126.82666667 0 229.65333333-102.82666667 229.65333333-229.65333334S571.62666667 236.16 444.8 236.16s-229.65333333 102.82666667-229.65333333 229.65333333S317.97333333 695.46666667 444.8 695.46666667z m-17.06666667-424c97.17333333 0 175.89333333 78.72 175.89333334 175.89333333S524.8 623.25333333 427.73333333 623.25333333s-175.89333333-78.72-175.89333333-175.89333333S330.56 271.46666667 427.73333333 271.46666667z"
    fill="#FF7E7A" p-id="1863"></path>
  <path
    d="M427.73333333 623.25333333c97.17333333 0 175.89333333-78.72 175.89333334-175.89333333S524.8 271.46666667 427.73333333 271.46666667s-175.89333333 78.72-175.89333333 175.89333333S330.56 623.25333333 427.73333333 623.25333333z m-17.17333333-316.48c67.41333333 0 122.13333333 54.61333333 122.13333333 122.13333334s-54.61333333 122.13333333-122.13333333 122.13333333-122.13333333-54.61333333-122.13333333-122.13333333 54.72-122.13333333 122.13333333-122.13333334z"
    fill="#FF887D" p-id="1864"></path>
  <path
    d="M324.1952 515.26293333a122.13333333 122.13333333 0 1 0 172.72-172.72533333 122.13333333 122.13333333 0 1 0-172.72 172.72533333z"
    fill="#FF9280" p-id="1865"></path>
  <path
    d="M510.93333333 944c-13.12 0-26.13333333-2.98666667-38.08-9.06666667-49.17333333-24.96-143.89333333-79.57333333-226.02666666-165.86666666-45.76-48-81.70666667-99.73333333-106.88-153.70666667-30.08-64.32-45.22666667-132.69333333-45.12-203.30666667 0-27.41333333 16.21333333-51.41333333 41.28-61.12 33.38666667-13.01333333 63.57333333-36.8 89.70666666-70.82666666 23.78666667-30.82666667 39.78666667-64.42666667 49.06666667-87.25333334 12.69333333-31.25333333 42.77333333-51.41333333 76.58666667-51.41333333h319.68c33.81333333 0 63.89333333 20.16 76.58666666 51.41333333 9.28 22.82666667 25.28 56.42666667 48.96 87.14666667 26.13333333 33.92 56.32 57.81333333 89.70666667 70.82666667 25.06666667 9.81333333 41.28 33.81333333 41.38666667 61.12 0.21333333 69.54666667-14.93333333 137.28-45.01333334 201.28-25.28 53.65333333-61.22666667 105.28-106.98666666 153.49333333-82.13333333 86.50666667-176.85333333 142.18666667-226.02666667 167.68-12.16 6.50666667-25.49333333 9.6-38.82666667 9.6zM351.46666667 160.85333333c-26.02666667 0-49.06666667 15.46666667-58.77333334 39.46666667-14.18666667 34.77333333-31.57333333 65.6-51.62666666 91.73333333-28.37333333 36.8-61.33333333 62.72-98.02666667 77.01333334-17.38666667 6.72-29.01333333 24.10666667-29.12 43.30666666-0.21333333 125.54666667 49.17333333 241.17333333 146.77333333 343.68 80.10666667 84.16 172.69333333 137.6 220.8 161.92 18.66666667 9.49333333 40.85333333 9.38666667 59.41333334-0.32 48.10666667-24.96 140.69333333-79.36 221.01333333-163.84 97.70666667-102.93333333 147.09333333-217.81333333 146.77333333-341.54666666-0.10666667-19.09333333-11.73333333-36.58666667-29.12-43.30666667-36.58666667-14.29333333-69.54666667-40.21333333-97.92-76.90666667-20.16-26.13333333-37.44-56.96-51.62666666-91.62666666-9.70666667-24-32.85333333-39.46666667-58.77333334-39.46666667H351.46666667v-0.10666667z"
    fill="#EF4868" p-id="1866"></path>
  <path
    d="M579.30666667 622.72h-36.48v-76.16c63.57333333-16.21333333 110.61333333-73.92 110.61333333-142.50666667 0-81.28-65.81333333-147.09333333-147.09333333-147.09333333s-147.09333333 65.81333333-147.09333334 147.09333333c0 68.58666667 47.04 126.29333333 110.61333334 142.50666667v172.48c0 20.05333333 16.42666667 36.58666667 36.58666666 36.58666667 20.05333333 0 36.58666667-16.42666667 36.58666667-36.58666667v-23.25333333h36.48c20.05333333 0 36.58666667-16.42666667 36.58666667-36.58666667-0.21333333-20.05333333-16.64-36.48-36.8-36.48z m-147.09333334-218.66666667c0-40.96 33.17333333-74.13333333 74.13333334-74.13333333s74.13333333 33.17333333 74.13333333 74.13333333-33.17333333 74.13333333-74.13333333 74.13333334-74.13333333-33.17333333-74.13333334-74.13333334z"
    fill="#FFC7C7" p-id="1867"></path>
  <path
    d="M205.97333333 564.26666667c-2.02666667 2.13333333-4.58666667 3.84-7.46666666 4.8-10.02666667 3.52-21.01333333-1.70666667-24.53333334-11.73333334-26.56-75.30666667-27.62666667-138.02666667-27.73333333-140.69333333-0.10666667-10.56 8.32-19.30666667 18.98666667-19.41333333 10.56-0.10666667 19.30666667 8.32 19.41333333 18.98666666 0 1.06666667 1.28 59.62666667 25.49333333 128.42666667 2.56 7.04 0.74666667 14.61333333-4.16 19.62666667z m31.46666667 69.22666666c-1.38666667 1.49333333-3.09333333 2.77333333-5.12 3.84-9.38666667 4.90666667-21.01333333 1.17333333-25.81333333-8.32l-5.54666667-10.66666666c-4.90666667-9.38666667-1.17333333-21.01333333 8.32-25.81333334 9.38666667-4.90666667 21.01333333-1.17333333 25.81333333 8.32l5.54666667 10.66666667c3.73333333 7.46666667 2.24 16.21333333-3.2 21.97333333z"
    fill="#FFFFFF" p-id="1868"></path>
</svg>