<?xml version="1.0" standalone="no"?>
<!DOCTYPE svg PUBLIC "-//W3C//DTD SVG 1.1//EN" "http://www.w3.org/Graphics/SVG/1.1/DTD/svg11.dtd">
<svg version="1.0" xmlns="http://www.w3.org/2000/svg" xmlns:xlink="http://www.w3.org/1999/xlink" width="100%"
    height="100%" viewBox="0 0 340.000000 250.000000" preserveAspectRatio="xMidYMid meet"
    color-interpolation-filters="sRGB" style="margin: auto;">
    <g fill="#b722ff" class="iconlettersvg-g iconlettersvg" transform="translate(25.250732421875,40.99993896484375)">
        <g mask="url(#c280d6a1-df8e-41fd-815f-4c6927ac263d)">
            <g class="tp-name" opacity="1" transform="matrix(1,0,0,1,0,0)">
                <g transform="scale(3.360000000000002)">
                    <g transform="translate(0, 0)">
                        <g class="name-imagesvg">
                            <g>
                                <rect fill="#b722ff" fill-opacity="0" stroke-width="2" x="0" y="0"
                                    width="49.64184954941987" height="50" class="image-rect"></rect>
                                <svg x="0" y="0" width="49.64184954941987" height="50" filtersec="colorsb3532674815"
                                    class="image-svg-svg primary" style="overflow: visible;">
                                    <svg xmlns="http://www.w3.org/2000/svg" viewBox="0 0 103.98 104.73">
                                        <path
                                            d="M78.21 40.3h-46a6.59 6.59 0 0 1 0-13.18h19l-25-25-1 .3a12.5 12.5 0 0 0-2.25.6A32.42 32.42 0 0 0 1.35 24.57a32.64 32.64 0 0 0 0 18.58 32.41 32.41 0 0 0 21.57 21.58 32.41 32.41 0 0 0 9.29 1.34H71a6.6 6.6 0 0 1 0 13.19H.15v25.47H71A32 32 0 0 0 101.73 82a32.64 32.64 0 0 0 0-18.58S95.91 41.21 78.21 40.3z"
                                            fill="#1e005a"></path>
                                        <path fill="#238be8" d="M63.83 25.47h40.15V0H38.36l25.47 25.47z"></path>
                                    </svg>
                                </svg>
                            </g>
                        </g>
                    </g>
                    <g transform="translate(38.64184954941987, 0)">
                        <g class="name-imagesvg">
                            <g>
                                <rect fill="#b722ff" fill-opacity="0" stroke-width="2" x="0" y="0"
                                    width="47.518434458033134" height="50" class="image-rect"></rect>
                                <svg x="0" y="0" width="47.518434458033134" height="50" filtersec="colorsb2128430224"
                                    class="image-svg-svg primary" style="overflow: visible;">
                                    <svg xmlns="http://www.w3.org/2000/svg" viewBox="0 0 100.54 105.78">
                                        <path fill="#1e005a"
                                            d="M28.17 0H0l50.19 105.78 13.64-28.62.45-.9-23.53-49.74L28.17 0z"></path>
                                        <path fill="#238be8"
                                            d="M55.29 35.96l-.45.9 14.08 29.81 2.7-5.54L100.53.15H72.22L55.29 35.96z">
                                        </path>
                                    </svg>
                                </svg>
                            </g>
                        </g>
                    </g>
                </g>
            </g>
            <rect v-gra="id" width="301.49853515625" height="180.0001220703125" transform="translate(-6, -6)"
                style="pointer-events:none;" fill="url(#b1d2341b-2908-4ab7-8d48-d05e5a56ab1d)"></rect>
        </g>
    </g>
    <defs v-gra="od">
        <filter id="8ad349ab-c6f5-445c-bf0f-88908d180f39" filterUnits="userSpaceOnUse">
            <feColorMatrix type="matrix" values="0 0 0 0 0.99609375  0 0 0 0 0.99609375  0 0 0 0 0.99609375  0 0 0 1 0">
            </feColorMatrix>
        </filter>
        <linearGradient x1="0" y1="1" x2="0" y2="0" id="b1d2341b-2908-4ab7-8d48-d05e5a56ab1d">
            <stop offset="0%" stop-color="#b722ff"></stop>
            <stop offset="100%" stop-color="#22d4fe"></stop>
        </linearGradient>
        <filter id="42443b3f1de60f6b6fd3b6a9844b4764" filterUnits="objectBoundingBox">
            <feColorMatrix type="matrix" values="0 0 0 0 0.99609375  0 0 0 0 0.99609375  0 0 0 0 0.99609375  0 0 0 1 0">
            </feColorMatrix>
        </filter>
    </defs>
    <mask v-gra="im" id="c280d6a1-df8e-41fd-815f-4c6927ac263d">
        <g filter="url(#8ad349ab-c6f5-445c-bf0f-88908d180f39)">
            <g class="tp-name" opacity="1" transform="matrix(1,0,0,1,0,0)">
                <g transform="scale(3.360000000000002)">
                    <g transform="translate(0, 0)">
                        <g class="name-imagesvg">
                            <g>
                                <rect fill="#b722ff" fill-opacity="0" stroke-width="2" x="0" y="0"
                                    width="49.64184954941987" height="50" class="image-rect"></rect>
                                <svg x="0" y="0" width="49.64184954941987" height="50" filtersec="colorsb3532674815"
                                    class="image-svg-svg primary" style="overflow: visible;">
                                    <svg xmlns="http://www.w3.org/2000/svg" viewBox="0 0 103.98 104.73">
                                        <path
                                            d="M78.21 40.3h-46a6.59 6.59 0 0 1 0-13.18h19l-25-25-1 .3a12.5 12.5 0 0 0-2.25.6A32.42 32.42 0 0 0 1.35 24.57a32.64 32.64 0 0 0 0 18.58 32.41 32.41 0 0 0 21.57 21.58 32.41 32.41 0 0 0 9.29 1.34H71a6.6 6.6 0 0 1 0 13.19H.15v25.47H71A32 32 0 0 0 101.73 82a32.64 32.64 0 0 0 0-18.58S95.91 41.21 78.21 40.3z"
                                            fill="#1e005a"></path>
                                        <path fill="#238be8" d="M63.83 25.47h40.15V0H38.36l25.47 25.47z"></path>
                                    </svg>
                                </svg>
                            </g>
                        </g>
                    </g>
                    <g transform="translate(38.64184954941987, 0)">
                        <g class="name-imagesvg">
                            <g>
                                <rect fill="#b722ff" fill-opacity="0" stroke-width="2" x="0" y="0"
                                    width="47.518434458033134" height="50" class="image-rect"></rect>
                                <svg x="0" y="0" width="47.518434458033134" height="50" filtersec="colorsb2128430224"
                                    class="image-svg-svg primary" style="overflow: visible;">
                                    <svg xmlns="http://www.w3.org/2000/svg" viewBox="0 0 100.54 105.78">
                                        <path fill="#1e005a"
                                            d="M28.17 0H0l50.19 105.78 13.64-28.62.45-.9-23.53-49.74L28.17 0z"></path>
                                        <path fill="#238be8"
                                            d="M55.29 35.96l-.45.9 14.08 29.81 2.7-5.54L100.53.15H72.22L55.29 35.96z">
                                        </path>
                                    </svg>
                                </svg>
                            </g>
                        </g>
                    </g>
                </g>
            </g>
        </g>
    </mask>
</svg>