<svg width="118" height="37" viewBox="0 0 118 37" fill="none" xmlns="http://www.w3.org/2000/svg">
<path fill-rule="evenodd" clip-rule="evenodd" d="M68.5745 22.4358C67.7211 21.6273 65.3551 20.0266 63.5582 17.0422C62.3492 15.0695 60.2901 13.7362 58.1099 13.7808C55.9301 13.7362 53.8706 15.0695 52.6616 17.0422C50.8647 20.0266 48.4991 21.6273 47.6453 22.4358C46.5785 23.4466 42.0599 25.852 43.0446 31.1086C44.0154 36.2961 48.916 36.5278 48.916 36.5278C48.916 36.5278 51.2086 36.7729 55.1568 35.8176C56.2324 35.5801 57.2322 35.4939 58.1099 35.4876C58.988 35.4939 59.9874 35.5801 61.063 35.8176C65.0116 36.7729 67.3043 36.5278 67.3043 36.5278C67.3043 36.5278 72.2044 36.2961 73.1756 31.1086C74.1599 25.852 69.6413 23.4466 68.5745 22.4358Z" fill="#2932E1"/>
<path fill-rule="evenodd" clip-rule="evenodd" d="M45.8687 19.3729C48.5576 19.0029 49.4945 16.2544 49.2189 13.6148C48.9753 11.2805 47.4107 8.62108 44.8384 8.85401C42.3633 9.07853 40.8348 11.5197 40.8507 14.3876C40.8654 17.1147 42.7537 19.8022 45.8687 19.3729Z" fill="#2932E1"/>
<mask id="mask0_2_6199" style="mask-type:alpha" maskUnits="userSpaceOnUse" x="48" y="0" width="9" height="11">
<path d="M48.4755 0H56.9066V10.8909H48.4755V0Z" fill="white"/>
</mask>
<g mask="url(#mask0_2_6199)">
<path fill-rule="evenodd" clip-rule="evenodd" d="M53.3635 10.8696C56.0209 10.6169 56.9666 7.88355 56.9037 5.19811C56.834 2.24147 55.2166 -0.130731 52.6678 0.00549623C50.4011 0.126587 48.5719 2.41008 48.4788 5.44618C48.3815 8.61851 50.4104 11.1505 53.3635 10.8696Z" fill="#2932E1"/>
</g>
<path fill-rule="evenodd" clip-rule="evenodd" d="M70.3514 19.3729C67.6625 19.0029 66.7257 16.2544 67.0012 13.6148C67.2449 11.2805 68.8095 8.62108 71.3818 8.85401C73.8568 9.07853 75.3854 11.5197 75.3694 14.3876C75.3548 17.1147 73.4664 19.8022 70.3514 19.3729Z" fill="#2932E1"/>
<mask id="mask1_2_6199" style="mask-type:alpha" maskUnits="userSpaceOnUse" x="59" y="0" width="9" height="11">
<path d="M59.3135 0H67.7447V10.8909H59.3135V0Z" fill="white"/>
</mask>
<g mask="url(#mask1_2_6199)">
<path fill-rule="evenodd" clip-rule="evenodd" d="M62.8567 10.8696C60.1992 10.6169 59.2532 7.88355 59.3165 5.19811C59.3861 2.24147 61.0031 -0.130731 63.5524 0.00549623C65.819 0.126587 67.6482 2.41008 67.7413 5.44618C67.839 8.61851 65.8094 11.1505 62.8567 10.8696Z" fill="#2932E1"/>
</g>
<path fill-rule="evenodd" clip-rule="evenodd" d="M55.9254 30.7168H52.1223C50.829 30.7168 50.0037 29.6833 50.0037 28.5187C50.0037 27.3603 50.7821 26.3134 52.0586 26.3134H55.7778V23.8419H52.0749C49.3223 23.8419 47.4612 25.8643 47.4612 28.4342C47.4612 31.2369 49.2078 33.2029 52.2443 33.2029H55.9254V30.7168Z" fill="white"/>
<path fill-rule="evenodd" clip-rule="evenodd" d="M58.7768 23.7627H61.2543V29.5494C61.2543 30.458 61.615 30.7216 62.0863 30.7216H64.6511L64.649 23.7627H67.1375V33.2031H61.8825C59.7468 33.2031 58.7768 32.0498 58.7768 30.3529V23.7627Z" fill="white"/>
<path fill-rule="evenodd" clip-rule="evenodd" d="M56.8137 33.203V19.8641H54.2531L54.2506 33.203H56.8137Z" fill="white"/>
<mask id="mask2_2_6199" style="mask-type:alpha" maskUnits="userSpaceOnUse" x="0" y="0" width="117" height="37">
<path d="M0 36.556H116.9V0H0V36.556Z" fill="white"/>
</mask>
<g mask="url(#mask2_2_6199)">
<path fill-rule="evenodd" clip-rule="evenodd" d="M34.4207 19.9981H38.4645V16.4671H34.4207V19.9981ZM34.4207 35.4283H38.4645V21.5395H34.4207V35.4283Z" fill="#E10602"/>
<path fill-rule="evenodd" clip-rule="evenodd" d="M27.8463 21.5288H19.2176V24.4464H26.7866C27.876 24.4464 28.5852 25.0337 28.5852 26.021V27.0494H22.2634C19.8324 27.0494 18.1328 28.5193 18.1328 31.2401C18.1328 34.1555 19.8634 35.4724 22.2634 35.4724H32.4789V25.5227C32.4789 23.1388 30.5897 21.5288 27.8463 21.5288ZM28.5852 32.7255H23.2388C22.4995 32.7255 21.9204 32.1996 21.9204 31.2401C21.9204 30.4143 22.4974 29.7462 23.3202 29.7462H28.5852V32.7255Z" fill="#E10602"/>
<path fill-rule="evenodd" clip-rule="evenodd" d="M17.1622 30.5493C17.1622 28.2608 16.0345 26.5394 14.2401 26.0008C15.8353 25.3184 16.5021 23.9578 16.5021 21.7576C16.5021 18.8809 14.1093 16.3413 9.22461 16.3413H6.10352e-05V35.6301H10.2013C14.7567 35.6301 17.1622 33.8621 17.1622 30.5493ZM9.96938 32.0545H4.23177V27.895H9.94087C11.4334 27.895 12.4645 28.6774 12.4645 30.0137C12.4645 31.3499 11.4573 32.0545 9.96938 32.0545ZM9.73203 24.1079H4.23177V20.104H9.71735C11.2639 20.104 12.1781 20.8309 12.1781 21.9973C12.1781 23.5517 11.2614 24.1079 9.73203 24.1079Z" fill="#E10602"/>
</g>
<path d="M95.7969 35.4701V33.1498H93.7344C93.276 33.2071 93.0755 32.9779 93.1328 32.4623V25.5014H94.3359C95.3672 25.5587 95.8828 25.0144 95.8828 23.8686V20.4311H93.1328V22.4936C93.1328 22.8373 92.9896 22.9805 92.7031 22.9232H87.375L89.0078 19.2279H95.7969V16.8217H91.4141V15.8764H88.1484V16.8217H83.9375V19.2279H85.9141L83.9375 23.6107V25.5014H90.3828V33.5795C90.3255 34.8399 90.8984 35.4701 92.1016 35.4701H95.7969ZM83.4219 30.5717V28.0795H79.5547L84.0234 20.0014H81.0156L79.8125 22.1498H78.8672L82.3047 15.9623H79.3828L76.2031 21.5482V24.5561H78.6094L76.2031 28.6811V30.5717H83.4219ZM86.2578 35.3842C87.3464 35.4988 87.9479 34.8972 88.0625 33.5795L89.0938 26.2748H86.4297L85.4844 32.2045C85.4271 32.892 85.1406 33.1785 84.625 33.0639H84.0234V35.3842H86.2578ZM83.3359 35.3842V32.9779H76.2031V35.3842H83.3359ZM112.543 35.5561V24.7279H117.098V21.9779H112.543V15.9623H109.106V21.9779H104.379V24.7279H109.106V35.5561H112.543ZM104.035 18.9701V16.0482H97.3321V18.9701H104.035ZM99.1368 33.5795C99.0222 35.0118 99.5665 35.6706 100.77 35.5561H104.293V33.0639H102.746C102.402 33.1212 102.231 32.9206 102.231 32.4623V21.9779H97.2462V24.8139H99.1368V33.5795Z" fill="#E10602"/>
</svg>
